<svg xmlns="http://www.w3.org/2000/svg" version="1" xmlns:xlink="http://www.w3.org/1999/xlink" width="1080" zoomAndPan="magnify" viewBox="0 0 810 809.999993" height="1080" preserveAspectRatio="xMidYMid meet"><metadata><rdf:RDF xmlns:rdf="http://www.w3.org/1999/02/22-rdf-syntax-ns#" xmlns:dc="http://purl.org/dc/elements/1.1/"><rdf:Description><dc:creator>RealFaviconGenerator</dc:creator><dc:source>https://realfavicongenerator.net</dc:source></rdf:Description></rdf:RDF></metadata><defs><clipPath id="20b4204087"><path d="M 67.378906 12.925781 L 744.628906 12.925781 L 744.628906 795 L 67.378906 795 Z M 67.378906 12.925781 " clip-rule="nonzero"></path></clipPath></defs><g clip-path="url(#20b4204087)"><path fill="#ffffff" d="M 405.902344 794.835938 L 67.324219 599.359375 L 67.324219 208.40625 L 405.902344 12.925781 L 744.480469 208.40625 L 744.480469 599.359375 Z M 405.902344 794.835938 " fill-opacity="1" fill-rule="nonzero"></path></g><path fill="#000000" d="M 711.171875 167.066406 L 456.359375 14.222656 C 440.554688 4.738281 422.773438 0 405.015625 0 C 387.238281 0 369.445312 4.738281 353.652344 14.222656 L 98.835938 167.066406 C 68.761719 185.109375 50.351562 217.609375 50.351562 252.679688 L 50.351562 557.320312 C 50.351562 592.390625 68.761719 624.890625 98.835938 642.933594 L 353.652344 795.777344 C 369.445312 805.253906 387.238281 810 405.015625 810 C 422.777344 810 440.554688 805.253906 456.359375 795.777344 L 711.171875 642.933594 C 741.253906 624.890625 759.648438 592.386719 759.648438 557.320312 L 759.648438 252.679688 C 759.648438 217.609375 741.25 185.109375 711.171875 167.066406 Z M 396.457031 779.519531 C 386.917969 778.339844 377.582031 775.226562 369.054688 770.109375 L 114.238281 617.261719 C 93.1875 604.625 80.292969 581.875 80.292969 557.320312 L 80.292969 252.679688 C 80.292969 243.152344 82.246094 233.914062 85.859375 225.414062 L 396.457031 411.714844 Z M 94.398438 210.589844 C 99.71875 203.527344 106.410156 197.429688 114.238281 192.734375 L 369.054688 39.890625 C 380.121094 33.253906 392.546875 29.941406 405.015625 29.941406 C 417.460938 29.941406 429.890625 33.253906 440.953125 39.890625 L 695.769531 192.734375 C 703.589844 197.429688 710.300781 203.527344 715.609375 210.589844 L 405.015625 396.902344 Z M 729.714844 557.320312 C 729.714844 581.875 716.824219 604.625 695.773438 617.261719 L 440.957031 770.109375 C 432.417969 775.226562 423.09375 778.339844 413.554688 779.519531 L 413.554688 411.71875 L 724.152344 225.417969 C 727.761719 233.914062 729.71875 243.15625 729.71875 252.683594 L 729.71875 557.320312 Z M 729.714844 557.320312 " fill-opacity="1" fill-rule="nonzero"></path><path fill="#000000" d="M 604.878906 183.164062 C 589.332031 171.640625 563.710938 171.355469 547.675781 182.507812 C 531.617188 193.660156 531.210938 212.054688 546.761719 223.558594 C 562.308594 235.070312 587.929688 235.371094 603.964844 224.214844 C 620.023438 213.054688 620.429688 194.679688 604.878906 183.164062 Z M 604.878906 183.164062 " fill-opacity="1" fill-rule="nonzero"></path><path fill="#000000" d="M 262.015625 179.660156 C 246.46875 168.148438 220.847656 167.863281 204.789062 179.011719 C 188.753906 190.175781 188.351562 208.550781 203.886719 220.0625 C 219.445312 231.585938 245.066406 231.863281 261.101562 220.722656 C 277.164062 209.550781 277.566406 191.175781 262.015625 179.660156 Z M 262.015625 179.660156 " fill-opacity="1" fill-rule="nonzero"></path><path fill="#000000" d="M 432.460938 182.09375 C 417.441406 170.976562 392.695312 170.6875 377.191406 181.46875 C 361.683594 192.25 361.28125 210.007812 376.308594 221.125 C 391.335938 232.246094 416.082031 232.535156 431.589844 221.753906 C 447.097656 210.972656 447.5 193.214844 432.460938 182.09375 Z M 432.460938 182.09375 " fill-opacity="1" fill-rule="nonzero"></path><path fill="#000000" d="M 141.257812 392.824219 C 158.910156 402.445312 173.207031 395.925781 173.207031 378.285156 C 173.207031 360.632812 158.910156 338.53125 141.257812 328.90625 C 123.605469 319.285156 109.289062 325.796875 109.289062 343.449219 C 109.289062 361.085938 123.605469 383.199219 141.257812 392.824219 Z M 141.257812 392.824219 " fill-opacity="1" fill-rule="nonzero"></path><path fill="#000000" d="M 319.667969 490.066406 C 337.320312 499.6875 351.636719 493.179688 351.636719 475.539062 C 351.636719 457.886719 337.316406 435.773438 319.667969 426.148438 C 302.027344 416.539062 287.71875 423.050781 287.71875 440.703125 C 287.71875 458.34375 302.027344 480.445312 319.667969 490.066406 Z M 319.667969 490.066406 " fill-opacity="1" fill-rule="nonzero"></path><path fill="#000000" d="M 141.257812 571.242188 C 158.910156 580.863281 173.207031 574.355469 173.207031 556.703125 C 173.207031 539.050781 158.910156 516.949219 141.257812 507.328125 C 123.605469 497.703125 109.289062 504.214844 109.289062 521.867188 C 109.289062 539.519531 123.605469 561.621094 141.257812 571.242188 Z M 141.257812 571.242188 " fill-opacity="1" fill-rule="nonzero"></path><path fill="#000000" d="M 319.667969 668.488281 C 337.320312 678.109375 351.636719 671.597656 351.636719 653.945312 C 351.636719 636.304688 337.316406 614.195312 319.667969 604.570312 C 302.027344 594.957031 287.71875 601.46875 287.71875 619.109375 C 287.71875 636.761719 302.027344 658.867188 319.667969 668.488281 Z M 319.667969 668.488281 " fill-opacity="1" fill-rule="nonzero"></path><path fill="#000000" d="M 572.613281 447.574219 C 544.359375 462.964844 521.484375 498.332031 521.484375 526.5625 C 521.484375 554.800781 544.359375 565.222656 572.613281 549.832031 C 600.84375 534.433594 623.742188 499.066406 623.742188 470.824219 C 623.742188 442.59375 600.84375 432.171875 572.613281 447.574219 Z M 572.613281 447.574219 " fill-opacity="1" fill-rule="nonzero"></path></svg>